<?xml version="1.0" encoding="utf-8"?>
<!-- Svg Vector Icons : http://www.onlinewebfonts.com/icon -->
<!DOCTYPE svg PUBLIC "-//W3C//DTD SVG 1.1//EN" "http://www.w3.org/Graphics/SVG/1.1/DTD/svg11.dtd">
<svg version="1.1" xmlns="http://www.w3.org/2000/svg" xmlns:xlink="http://www.w3.org/1999/xlink" x="0px" y="0px" viewBox="0 0 1000 1000" enable-background="new 0 0 1000 1000" xml:space="preserve">
<metadata> Svg Vector Icons : http://www.onlinewebfonts.com/icon </metadata>
<g><g transform="translate(0.000000,511.000000) scale(0.100000,-0.100000)"><path d="M4619,4989.9c-837.3-63.7-1641.7-340.6-2314.1-791.2c-896.6-604.4-1523-1545-1773.5-2659.2c-206.6-920.8-156-2101,131.9-3043.8C1146.7-3101.9,2311.4-4249.1,3852-4646.8c727.4-186.8,1542.8-191.2,2254.8-11c1599.9,404.4,2780,1575.7,3256.9,3235C9522-873.4,9594.5-328.4,9594.5,326.5c0,573.6-37.4,898.8-158.2,1380.1C8959.4,3581.2,7399,4838.3,5353,4992.1C5025.5,5016.3,4966.2,5016.3,4619,4989.9z M5337.6,4519.6C6570.5,4335,7544.1,3209.8,7878.1,1583.6c241.7-1169.2,171.4-2635-173.6-3667.9c-340.6-1019.7-986.8-1802.1-1760.3-2136.1c-305.5-131.9-514.2-175.8-865.9-186.8c-360.4-13.2-613.2,28.6-916.4,151.6C2986.1-3783.1,2210.3-2506.3,2023.5-737.2c-37.4,373.6-44,1257.1-11,1599.9c164.8,1650.5,839.5,2874.5,1881.2,3408.6c292.3,149.4,494.5,211,887.9,268.1C4913.4,4557,5137.6,4550.4,5337.6,4519.6z"/><path d="M3427.8,2038.5c-37.3-17.6-87.9-57.1-114.3-90.1l-48.3-61.5V229.8v-1659.2l72.5-72.5c44-43.9,105.5-79.1,153.8-87.9c125.3-24.2,235.2,6.6,316.5,87.9l72.5,72.5v457.1c0,520.8,6.6,542.8,180.2,668.1C4300.3-130.6,4495.9-84.5,4997-84.5c340.6,0,415.4-6.6,545-46.2c261.5-81.3,432.9-186.8,514.3-316.5c39.6-65.9,43.9-107.7,43.9-527.4v-454.9l72.5-72.5c81.3-81.3,191.2-112.1,316.5-87.9c48.3,8.8,109.9,44,153.8,87.9l72.5,72.5V234.2v1663.6l-72.5,72.5c-81.3,81.3-191.2,112.1-316.5,87.9c-48.4-8.8-109.9-44-153.8-87.9l-72.5-72.5v-457.1c0-520.8-6.6-542.8-180.2-668.1c-239.6-173.6-435.1-219.8-936.2-219.8c-364.8,0-413.2,4.4-573.6,55C4208,671.5,3990.4,810,3926.7,913.3c-41.8,68.1-46.2,107.7-46.2,523c0,428.5-2.2,454.9-48.3,512.1C3744.3,2060.5,3568.5,2100,3427.8,2038.5z"/></g></g>
</svg>